<svg width="21" height="21" viewBox="0 0 21 21" fill="none" xmlns="http://www.w3.org/2000/svg">
<path fill-rule="evenodd" clip-rule="evenodd" d="M6.98269 0.865936C3.67615 0.865936 0.995667 3.54642 0.995667 6.85296V14.8357C0.995667 18.1422 3.67615 20.8227 6.98269 20.8227H14.9654C18.2719 20.8227 20.9524 18.1422 20.9524 14.8357V6.85296C20.9524 3.54642 18.2719 0.865936 14.9654 0.865936H6.98269ZM2.99134 6.85296C2.99134 4.6486 4.77833 2.86161 6.98269 2.86161H14.9654C17.1697 2.86161 18.9567 4.6486 18.9567 6.85296V14.8357C18.9567 17.04 17.1697 18.827 14.9654 18.827H6.98269C4.77833 18.827 2.99134 17.04 2.99134 14.8357V6.85296ZM11.9719 6.85296C11.9719 6.30187 11.5251 5.85512 10.974 5.85512C10.4229 5.85512 9.9762 6.30187 9.9762 6.85296V9.84647H6.98269C6.4316 9.84647 5.98485 10.2932 5.98485 10.8443C5.98485 11.3954 6.4316 11.8421 6.98269 11.8421H9.9762V14.8357C9.9762 15.3867 10.4229 15.8335 10.974 15.8335C11.5251 15.8335 11.9719 15.3867 11.9719 14.8357V11.8421H14.9654C15.5165 11.8421 15.9632 11.3954 15.9632 10.8443C15.9632 10.2932 15.5165 9.84647 14.9654 9.84647H11.9719V6.85296Z" fill="white"/>
</svg>
