<svg width="16" height="17" viewBox="0 0 16 17" fill="none" xmlns="http://www.w3.org/2000/svg">
<path d="M13.9315 7.90872L7.51153 14.3287C6.24332 15.5969 4.18626 15.7972 2.80275 14.6564C1.21899 13.3517 1.13404 10.9973 2.55396 9.57742L10.054 2.07735C10.8489 1.28243 12.1414 1.13073 13.0092 1.84069C14.0104 2.65988 14.065 4.13441 13.173 5.02641L6.80157 11.3978C6.46783 11.7316 5.92171 11.7316 5.58797 11.3978C5.25423 11.0641 5.25423 10.518 5.58797 10.1842L10.8975 4.87471C11.1463 4.62592 11.1463 4.21329 10.8975 3.9645C10.6487 3.71571 10.2361 3.71571 9.98729 3.9645L4.76272 9.18907C3.96781 9.98398 3.81611 11.2765 4.52606 12.1442C5.34525 13.1454 6.81978 13.2 7.71178 12.308L13.98 6.03977C15.2483 4.77155 15.4485 2.71449 14.3077 1.33098C12.997 -0.258843 10.6487 -0.337728 9.22878 1.08219L1.78332 8.52766C0.0417942 10.2692 -0.243403 13.1029 1.32822 15.0022C3.14256 17.1807 6.36468 17.296 8.31858 15.342L14.8417 8.81892C15.0905 8.57013 15.0905 8.15751 14.8417 7.90872C14.5929 7.65993 14.1803 7.65993 13.9315 7.90872Z" fill="#616161"/>
</svg>
