<svg width="22" height="21" viewBox="0 0 22 21" fill="none" xmlns="http://www.w3.org/2000/svg">
<path fill-rule="evenodd" clip-rule="evenodd" d="M2.99135 9.84644C2.99135 5.9888 6.11859 2.86156 9.97623 2.86156C13.8339 2.86156 16.9611 5.9888 16.9611 9.84644C16.9611 13.7041 13.8339 16.8313 9.97623 16.8313C6.11859 16.8313 2.99135 13.7041 2.99135 9.84644ZM9.97623 0.865875C5.0164 0.865875 0.995667 4.88661 0.995667 9.84644C0.995667 14.8063 5.0164 18.827 9.97623 18.827C12.3579 18.827 14.5231 17.8999 16.1305 16.3868C16.1664 16.4406 16.2081 16.4916 16.2555 16.5391L20.2469 20.5304C20.6366 20.9201 21.2684 20.9201 21.6581 20.5304C22.0477 20.1407 22.0477 19.509 21.6581 19.1193L17.6667 15.1279C17.5816 15.0428 17.4849 14.9762 17.3817 14.9283C18.3753 13.4832 18.9568 11.7327 18.9568 9.84644C18.9568 4.88661 14.9361 0.865875 9.97623 0.865875Z" fill="white"/>
</svg>
